<mxfile host="Electron" agent="Mozilla/5.0 (Macintosh; Intel Mac OS X 10_15_7) AppleWebKit/537.36 (KHTML, like Gecko) draw.io/28.1.2 Chrome/138.0.7204.243 Electron/37.4.0 Safari/537.36" version="28.1.2">
  <diagram name="Page-1" id="juWppmIL4PO7IhQG2JIx">
    <mxGraphModel dx="1006" dy="677" grid="1" gridSize="10" guides="1" tooltips="1" connect="1" arrows="1" fold="1" page="1" pageScale="1" pageWidth="930" pageHeight="470" math="0" shadow="0">
      <root>
        <mxCell id="0" />
        <mxCell id="1" parent="0" />
        <mxCell id="cjBwnZ4oWd3ltVle5P5g-1" value="O-SAC fullfillment" style="rounded=1;whiteSpace=wrap;html=1;fillColor=#e1d5e7;strokeColor=#9673a6;" parent="1" vertex="1">
          <mxGeometry x="210" y="130" width="280" height="40" as="geometry" />
        </mxCell>
        <mxCell id="cjBwnZ4oWd3ltVle5P5g-13" value="Bare Metal &amp;amp; L2/L1 Networking Service&amp;nbsp;" style="rounded=0;whiteSpace=wrap;html=1;fillColor=#dae8fc;strokeColor=#6c8ebf;" parent="1" vertex="1">
          <mxGeometry x="250" y="262" width="100" height="50" as="geometry" />
        </mxCell>
        <mxCell id="cjBwnZ4oWd3ltVle5P5g-14" value="DNS" style="rounded=0;whiteSpace=wrap;html=1;fillColor=#f8cecc;strokeColor=#b85450;" parent="1" vertex="1">
          <mxGeometry x="135" y="182" width="60" height="20" as="geometry" />
        </mxCell>
        <mxCell id="cjBwnZ4oWd3ltVle5P5g-15" value="Auth" style="rounded=0;whiteSpace=wrap;html=1;fillColor=#f8cecc;strokeColor=#b85450;" parent="1" vertex="1">
          <mxGeometry x="135" y="209" width="60" height="20" as="geometry" />
        </mxCell>
        <mxCell id="cjBwnZ4oWd3ltVle5P5g-16" value="Quota" style="rounded=0;whiteSpace=wrap;html=1;fillColor=#f8cecc;strokeColor=#b85450;" parent="1" vertex="1">
          <mxGeometry x="135" y="236" width="60" height="20" as="geometry" />
        </mxCell>
        <mxCell id="cjBwnZ4oWd3ltVle5P5g-17" value="Billing" style="rounded=0;whiteSpace=wrap;html=1;fillColor=#f8cecc;strokeColor=#b85450;" parent="1" vertex="1">
          <mxGeometry x="135" y="262" width="60" height="20" as="geometry" />
        </mxCell>
        <mxCell id="cjBwnZ4oWd3ltVle5P5g-73" value="" style="group" parent="1" vertex="1" connectable="0">
          <mxGeometry x="320" y="180" width="76" height="70" as="geometry" />
        </mxCell>
        <mxCell id="cjBwnZ4oWd3ltVle5P5g-18" value="ACM (s)" style="rounded=0;whiteSpace=wrap;html=1;fillColor=#dae8fc;strokeColor=#6c8ebf;" parent="cjBwnZ4oWd3ltVle5P5g-73" vertex="1">
          <mxGeometry width="76" height="30" as="geometry" />
        </mxCell>
        <mxCell id="cjBwnZ4oWd3ltVle5P5g-51" value="AAP" style="rounded=0;whiteSpace=wrap;html=1;fillColor=#dae8fc;strokeColor=#6c8ebf;" parent="cjBwnZ4oWd3ltVle5P5g-73" vertex="1">
          <mxGeometry y="40" width="76" height="30" as="geometry" />
        </mxCell>
        <mxCell id="lmToJU-WGSidIPPRWOJa-2" value="templates" style="text;html=1;align=center;verticalAlign=middle;whiteSpace=wrap;rounded=0;" vertex="1" parent="1">
          <mxGeometry x="520" y="135" width="70" height="30" as="geometry" />
        </mxCell>
        <mxCell id="lmToJU-WGSidIPPRWOJa-5" value="T" style="ellipse;whiteSpace=wrap;html=1;" vertex="1" parent="1">
          <mxGeometry x="455" y="135" width="30" height="30" as="geometry" />
        </mxCell>
        <mxCell id="lmToJU-WGSidIPPRWOJa-6" value="T" style="ellipse;whiteSpace=wrap;html=1;" vertex="1" parent="1">
          <mxGeometry x="460" y="135" width="30" height="30" as="geometry" />
        </mxCell>
        <mxCell id="lmToJU-WGSidIPPRWOJa-7" value="T" style="ellipse;whiteSpace=wrap;html=1;" vertex="1" parent="1">
          <mxGeometry x="465" y="135" width="30" height="30" as="geometry" />
        </mxCell>
        <mxCell id="lmToJU-WGSidIPPRWOJa-8" style="rounded=0;orthogonalLoop=1;jettySize=auto;html=1;exitX=0;exitY=0.5;exitDx=0;exitDy=0;entryX=0.87;entryY=0.42;entryDx=0;entryDy=0;entryPerimeter=0;" edge="1" parent="1" source="lmToJU-WGSidIPPRWOJa-2" target="lmToJU-WGSidIPPRWOJa-7">
          <mxGeometry relative="1" as="geometry" />
        </mxCell>
        <mxCell id="lmToJU-WGSidIPPRWOJa-9" value="Advanced Cluster Management" style="text;html=1;align=center;verticalAlign=middle;whiteSpace=wrap;rounded=0;" vertex="1" parent="1">
          <mxGeometry x="510" y="182" width="140" height="30" as="geometry" />
        </mxCell>
        <mxCell id="lmToJU-WGSidIPPRWOJa-10" value="Ansible Automation Platform" style="text;html=1;align=center;verticalAlign=middle;whiteSpace=wrap;rounded=0;" vertex="1" parent="1">
          <mxGeometry x="510" y="229" width="140" height="30" as="geometry" />
        </mxCell>
        <mxCell id="cjBwnZ4oWd3ltVle5P5g-69" value="near future" parent="0" />
        <mxCell id="cjBwnZ4oWd3ltVle5P5g-72" value="Bare Metal &amp;amp; L2/L1 Networking Service&amp;nbsp;" style="rounded=0;whiteSpace=wrap;html=1;fillColor=#dae8fc;strokeColor=#6c8ebf;" parent="cjBwnZ4oWd3ltVle5P5g-69" vertex="1">
          <mxGeometry x="365" y="260" width="100" height="50" as="geometry" />
        </mxCell>
        <mxCell id="cjBwnZ4oWd3ltVle5P5g-74" value="" style="group" parent="cjBwnZ4oWd3ltVle5P5g-69" vertex="1" connectable="0">
          <mxGeometry x="230" y="180" width="76" height="70" as="geometry" />
        </mxCell>
        <mxCell id="cjBwnZ4oWd3ltVle5P5g-75" value="ACM (s)" style="rounded=0;whiteSpace=wrap;html=1;fillColor=#dae8fc;strokeColor=#6c8ebf;" parent="cjBwnZ4oWd3ltVle5P5g-74" vertex="1">
          <mxGeometry width="76" height="30" as="geometry" />
        </mxCell>
        <mxCell id="cjBwnZ4oWd3ltVle5P5g-76" value="AAP" style="rounded=0;whiteSpace=wrap;html=1;fillColor=#dae8fc;strokeColor=#6c8ebf;" parent="cjBwnZ4oWd3ltVle5P5g-74" vertex="1">
          <mxGeometry y="40" width="76" height="30" as="geometry" />
        </mxCell>
        <mxCell id="cjBwnZ4oWd3ltVle5P5g-77" value="" style="group" parent="cjBwnZ4oWd3ltVle5P5g-69" vertex="1" connectable="0">
          <mxGeometry x="410" y="180" width="76" height="70" as="geometry" />
        </mxCell>
        <mxCell id="cjBwnZ4oWd3ltVle5P5g-78" value="ACM (s)" style="rounded=0;whiteSpace=wrap;html=1;fillColor=#dae8fc;strokeColor=#6c8ebf;" parent="cjBwnZ4oWd3ltVle5P5g-77" vertex="1">
          <mxGeometry width="76" height="30" as="geometry" />
        </mxCell>
        <mxCell id="cjBwnZ4oWd3ltVle5P5g-79" value="AAP" style="rounded=0;whiteSpace=wrap;html=1;fillColor=#dae8fc;strokeColor=#6c8ebf;" parent="cjBwnZ4oWd3ltVle5P5g-77" vertex="1">
          <mxGeometry y="40" width="76" height="30" as="geometry" />
        </mxCell>
        <mxCell id="cjBwnZ4oWd3ltVle5P5g-80" value="&lt;div&gt;Provider&lt;/div&gt;&lt;div&gt;&lt;span style=&quot;background-color: transparent; color: light-dark(rgb(0, 0, 0), rgb(255, 255, 255));&quot;&gt;services&lt;/span&gt;&lt;/div&gt;" style="text;html=1;align=center;verticalAlign=middle;whiteSpace=wrap;rounded=0;" parent="cjBwnZ4oWd3ltVle5P5g-69" vertex="1">
          <mxGeometry x="125" y="286" width="80" height="30" as="geometry" />
        </mxCell>
        <mxCell id="cjBwnZ4oWd3ltVle5P5g-70" value="far future" parent="0" />
        <mxCell id="cjBwnZ4oWd3ltVle5P5g-71" value="services" parent="0" />
      </root>
    </mxGraphModel>
  </diagram>
</mxfile>
